<?xml version="1.0" encoding="utf-8"?>
<svg viewBox="0 0 500 500" xmlns="http://www.w3.org/2000/svg">
  <path d="M 31.096 274.015 Q 26.858 269.565 24.633 266.386 Q 22.408 263.208 22.408 260.241 Q 22.408 256.426 26.116 252.612 Q 29.825 248.798 35.653 245.831 Q 41.48 242.864 48.367 241.063 Q 55.255 239.261 61.612 239.261 Q 68.393 239.261 72.738 241.063 Q 77.082 242.864 81.108 247.102 Q 97.425 264.267 110.67 282.174 Q 123.915 300.081 136.63 319.153 Q 148.921 286.306 162.059 255.685 Q 175.198 225.063 189.926 195.713 Q 204.654 166.363 221.501 137.861 Q 238.348 109.358 258.056 80.538 Q 265.261 69.73 279.354 64.644 Q 293.446 59.558 315.485 59.558 Q 322.054 59.558 326.081 61.465 Q 330.107 63.373 330.107 66.551 Q 330.107 69.306 328.836 72.061 Q 327.564 74.816 325.021 78.419 Q 276.917 145.595 237.501 219.13 Q 198.085 292.664 169.052 374.251 Q 167.145 380.184 159.728 383.151 Q 152.311 386.118 137.901 386.118 Q 131.12 386.118 126.458 385.694 Q 121.796 385.27 118.617 384.105 Q 115.438 382.939 113.319 381.244 Q 111.2 379.548 109.717 377.006 Q 100.604 362.172 92.022 349.351 Q 83.439 336.53 74.221 324.451 Q 65.003 312.372 54.513 300.081 Q 44.023 287.79 31.096 274.015 Z" transform="matrix(1.5762178897857666, 0, 0, 1.1458940505981445, -27.816017150878906, -13.383171081542969)" style="fill: rgb(51, 51, 51);"/>
  <path d="M 30.733 274.358 C 27.898 271.382 25.721 268.81 24.223 266.673 C 22.71 264.496 21.908 262.304 21.908 260.241 C 21.908 257.588 23.24 254.871 25.758 252.263 C 28.265 249.691 31.509 247.382 35.426 245.385 C 39.336 243.396 43.625 241.788 48.24 240.579 C 52.862 239.372 57.34 238.761 61.612 238.761 C 66.173 238.761 69.977 239.384 72.93 240.601 C 75.876 241.83 78.751 243.902 81.47 246.758 C 92.358 258.212 102.233 269.926 111.072 281.877 C 119.906 293.82 128.197 305.631 136.504 318.064 C 144.7 296.16 152.839 275.907 161.6 255.488 C 170.362 235.066 179.657 215.062 189.479 195.489 C 199.302 175.914 209.835 156.615 221.071 137.607 C 232.306 118.597 244.497 99.481 257.64 80.261 C 262.502 72.994 269.724 67.599 279.184 64.174 C 288.629 60.771 300.758 59.058 315.485 59.058 C 319.909 59.058 323.548 59.722 326.295 61.013 C 329.068 62.356 330.607 64.277 330.607 66.551 C 330.607 68.444 330.154 70.385 329.29 72.271 C 328.429 74.131 327.133 76.293 325.428 78.71 C 293.367 123.481 264.211 170.357 237.942 219.366 C 211.673 268.372 188.873 320.041 169.525 374.414 C 168.188 378.473 164.945 381.603 159.914 383.615 C 154.913 385.616 147.541 386.618 137.901 386.618 C 133.371 386.618 129.534 386.476 126.413 386.192 C 123.278 385.907 120.601 385.361 118.445 384.574 C 116.293 383.782 114.457 382.789 113.007 381.634 C 111.56 380.47 110.302 378.992 109.288 377.263 C 103.216 367.38 97.325 358.172 91.607 349.629 C 85.889 341.088 79.964 332.801 73.824 324.754 C 67.682 316.707 61.122 308.595 54.133 300.406 C 47.143 292.216 39.346 283.537 30.733 274.358 Z M 54.893 299.756 C 61.891 307.955 68.469 316.089 74.618 324.148 C 80.769 332.207 86.711 340.519 92.437 349.073 C 98.162 357.625 104.065 366.851 110.143 376.744 C 111.106 378.403 112.253 379.756 113.631 380.854 C 115.007 381.959 116.703 382.873 118.789 383.636 C 120.872 384.402 123.422 384.916 126.503 385.196 C 129.598 385.478 133.39 385.618 137.901 385.618 C 147.474 385.618 154.654 384.642 159.542 382.687 C 164.401 380.743 167.37 377.949 168.576 374.098 C 187.938 319.69 210.775 267.934 237.06 218.894 C 263.346 169.857 292.536 122.926 324.614 78.129 C 326.298 75.743 327.547 73.664 328.382 71.851 C 329.213 70.063 329.607 68.331 329.607 66.551 C 329.607 64.588 328.462 63.118 325.867 61.917 C 323.245 60.666 319.82 60.058 315.485 60.058 C 300.827 60.058 288.868 61.736 279.524 65.114 C 270.193 68.47 263.217 73.672 258.472 80.815 C 245.338 100.022 233.158 119.121 221.931 138.115 C 210.704 157.109 200.188 176.378 190.373 195.937 C 180.558 215.497 171.275 235.474 162.518 255.882 C 153.762 276.291 145.29 297.436 137.098 319.328 L 136.756 320.243 L 136.214 319.43 C 127.741 306.721 119.094 294.404 110.268 282.471 C 101.447 270.546 91.614 258.879 80.746 247.447 C 78.097 244.652 75.392 242.697 72.547 241.525 C 69.706 240.339 66.093 239.761 61.612 239.761 C 57.408 239.761 53.056 240.351 48.494 241.547 C 43.927 242.74 39.739 244.31 35.88 246.277 C 32.026 248.236 28.913 250.447 26.474 252.961 C 24.048 255.438 22.908 257.807 22.908 260.241 C 22.908 262.134 23.59 264.039 25.043 266.099 C 26.512 268.2 28.642 270.714 31.458 273.67 C 40.08 282.858 47.896 291.558 54.893 299.756 Z" style="fill: none;" transform="matrix(1.576217770576477, 0, 0, 1.1458940505981445, -27.816017150878906, -13.383171081542969)"/>
  <path d="M 30.733 274.358 C 27.898 271.382 25.721 268.81 24.223 266.673 C 22.71 264.496 21.908 262.304 21.908 260.241 C 21.908 257.588 23.24 254.871 25.758 252.263 C 28.265 249.691 31.509 247.382 35.426 245.385 C 39.336 243.396 43.625 241.788 48.24 240.579 C 52.862 239.372 57.34 238.761 61.612 238.761 C 66.173 238.761 69.977 239.384 72.93 240.601 C 75.876 241.83 78.751 243.902 81.47 246.758 C 92.358 258.212 102.233 269.926 111.072 281.877 C 119.906 293.82 128.197 305.631 136.504 318.064 C 144.7 296.16 152.839 275.907 161.6 255.488 C 170.362 235.066 179.657 215.062 189.479 195.489 C 199.302 175.914 209.835 156.615 221.071 137.607 C 232.306 118.597 244.497 99.481 257.64 80.261 C 262.502 72.994 269.724 67.599 279.184 64.174 C 288.629 60.771 300.758 59.058 315.485 59.058 C 319.909 59.058 323.548 59.722 326.295 61.013 C 329.068 62.356 330.607 64.277 330.607 66.551 C 330.607 68.444 330.154 70.385 329.29 72.271 C 328.429 74.131 327.133 76.293 325.428 78.71 C 293.367 123.481 264.211 170.357 237.942 219.366 C 211.673 268.372 188.873 320.041 169.525 374.414 C 168.188 378.473 164.945 381.603 159.914 383.615 C 154.913 385.616 147.541 386.618 137.901 386.618 C 133.371 386.618 129.534 386.476 126.413 386.192 C 123.278 385.907 120.601 385.361 118.445 384.574 C 116.293 383.782 114.457 382.789 113.007 381.634 C 111.56 380.47 110.302 378.992 109.288 377.263 C 103.216 367.38 97.325 358.172 91.607 349.629 C 85.889 341.088 79.964 332.801 73.824 324.754 C 67.682 316.707 61.122 308.595 54.133 300.406 C 47.143 292.216 39.346 283.537 30.733 274.358 Z M 54.893 299.756 C 61.891 307.955 68.469 316.089 74.618 324.148 C 80.769 332.207 86.711 340.519 92.437 349.073 C 98.162 357.625 104.065 366.851 110.143 376.744 C 111.106 378.403 112.253 379.756 113.631 380.854 C 115.007 381.959 116.703 382.873 118.789 383.636 C 120.872 384.402 123.422 384.916 126.503 385.196 C 129.598 385.478 133.39 385.618 137.901 385.618 C 147.474 385.618 154.654 384.642 159.542 382.687 C 164.401 380.743 167.37 377.949 168.576 374.098 C 187.938 319.69 210.775 267.934 237.06 218.894 C 263.346 169.857 292.536 122.926 324.614 78.129 C 326.298 75.743 327.547 73.664 328.382 71.851 C 329.213 70.063 329.607 68.331 329.607 66.551 C 329.607 64.588 328.462 63.118 325.867 61.917 C 323.245 60.666 319.82 60.058 315.485 60.058 C 300.827 60.058 288.868 61.736 279.524 65.114 C 270.193 68.47 263.217 73.672 258.472 80.815 C 245.338 100.022 233.158 119.121 221.931 138.115 C 210.704 157.109 200.188 176.378 190.373 195.937 C 180.558 215.497 171.275 235.474 162.518 255.882 C 153.762 276.291 145.29 297.436 137.098 319.328 L 136.756 320.243 L 136.214 319.43 C 127.741 306.721 119.094 294.404 110.268 282.471 C 101.447 270.546 91.614 258.879 80.746 247.447 C 78.097 244.652 75.392 242.697 72.547 241.525 C 69.706 240.339 66.093 239.761 61.612 239.761 C 57.408 239.761 53.056 240.351 48.494 241.547 C 43.927 242.74 39.739 244.31 35.88 246.277 C 32.026 248.236 28.913 250.447 26.474 252.961 C 24.048 255.438 22.908 257.807 22.908 260.241 C 22.908 262.134 23.59 264.039 25.043 266.099 C 26.512 268.2 28.642 270.714 31.458 273.67 C 40.08 282.858 47.896 291.558 54.893 299.756 Z" style="fill: none;" transform="matrix(1.576217770576477, 0, 0, 1.1458940505981445, -27.816017150878906, -13.383171081542969)"/>
</svg>